<svg width="166" height="32" viewBox="0 0 166 32" fill="none" xmlns="http://www.w3.org/2000/svg">
    <path
        d="M5.04 14.914V5.67404H10.29C13.482 5.67404 15.414 7.48004 15.414 10.336C15.414 13.15 13.482 14.914 10.29 14.914H5.04ZM11.046 19.366C16.758 19.366 20.538 15.544 20.538 10.294C20.538 5.08604 16.758 1.22204 11.046 1.22204H0V31H5.04V19.366H11.046Z"
        fill="white"></path>
    <path
        d="M29.3895 18.988C29.4735 16.384 30.9435 14.368 33.6315 14.368C36.6975 14.368 37.8315 16.384 37.8315 18.904V31H42.7035V18.064C42.7035 13.57 40.2675 9.95804 35.2275 9.95804C33.0855 9.95804 30.7755 10.714 29.3895 12.52V0.592041H24.5175V31H29.3895V18.988Z"
        fill="white"></path>
    <path
        d="M47.3747 25.456C47.3747 28.69 50.0207 31.63 54.3047 31.63C57.6227 31.63 59.6387 29.95 60.6047 28.396C60.6047 30.034 60.7727 30.874 60.8147 31H65.3507C65.3087 30.79 65.0987 29.572 65.0987 27.724V17.56C65.0987 13.486 62.7047 9.91604 56.4047 9.91604C51.3647 9.91604 48.1727 13.066 47.7947 16.594L52.2467 17.602C52.4567 15.544 53.8847 13.906 56.4467 13.906C59.1347 13.906 60.3107 15.292 60.3107 17.014C60.3107 17.728 59.9747 18.316 58.7987 18.484L53.5487 19.282C50.0627 19.786 47.3747 21.802 47.3747 25.456ZM55.2287 27.808C53.2967 27.808 52.2467 26.548 52.2467 25.162C52.2467 23.482 53.4647 22.642 54.9767 22.39L60.3107 21.592V22.516C60.3107 26.506 57.9587 27.808 55.2287 27.808Z"
        fill="white"></path>
    <path
        d="M75.8602 19.198C75.8602 16.51 77.3302 14.368 80.1022 14.368C83.1682 14.368 84.3022 16.384 84.3022 18.904V31H89.1742V18.064C89.1742 13.57 86.7802 9.95804 81.7822 9.95804C79.5142 9.95804 77.0782 10.924 75.7342 13.276V10.546H70.9882V31H75.8602V19.198Z"
        fill="white"></path>
    <path
        d="M101.279 4.28804H96.8694V7.35404C96.8694 9.16004 95.9034 10.546 93.7194 10.546H92.6694V14.872H96.4494V25.162C96.4494 28.984 98.8014 31.252 102.581 31.252C104.345 31.252 105.269 30.916 105.563 30.79V26.758C105.353 26.8 104.555 26.926 103.883 26.926C102.077 26.926 101.279 26.17 101.279 24.364V14.872H105.521V10.546H101.279V4.28804Z"
        fill="white"></path>
    <path
        d="M119.31 27.262C116.328 27.262 113.598 24.994 113.598 20.752C113.598 16.51 116.328 14.326 119.31 14.326C122.334 14.326 125.022 16.51 125.022 20.752C125.022 25.036 122.334 27.262 119.31 27.262ZM119.31 9.91604C113.22 9.91604 108.726 14.494 108.726 20.752C108.726 27.052 113.22 31.63 119.31 31.63C125.442 31.63 129.936 27.052 129.936 20.752C129.936 14.494 125.442 9.91604 119.31 9.91604Z"
        fill="white"></path>
    <path
        d="M139.474 31V18.862C139.474 16.258 141.112 14.326 143.716 14.326C146.488 14.326 147.664 16.174 147.664 18.526V31H152.452V18.862C152.452 16.342 154.132 14.326 156.694 14.326C159.424 14.326 160.642 16.132 160.642 18.526V31H165.346V17.728C165.346 12.31 161.818 9.95804 158.122 9.95804C155.476 9.95804 153.082 10.882 151.486 13.57C150.394 11.176 148.042 9.95804 145.354 9.95804C143.044 9.95804 140.482 11.05 139.306 13.15V10.546H134.644V31H139.474Z"
        fill="white"></path>
</svg>